<?xml version="1.0" encoding="UTF-8"?>
<svg width="2393px" height="1495px" viewBox="0 0 2393 1495" version="1.1" xmlns="http://www.w3.org/2000/svg" xmlns:xlink="http://www.w3.org/1999/xlink" style="background: #000000;">
    <!-- Generator: Sketch 49.1 (51147) - http://www.bohemiancoding.com/sketch -->
    <title>Flat</title>
    <desc>Created with Sketch.</desc>
    <defs></defs>
    <g id="Flat" stroke="none" stroke-width="1" fill="none" fill-rule="evenodd">
        <g id="logo" opacity="0.159193841" transform="translate(139.000000, -220.000000)" fill-rule="nonzero">
            <g id="Group" fill="#FFFFFF">
                <circle id="Oval" cx="2096.13966" cy="1059" r="20.1410169"></circle>
                <circle id="Oval" cx="20.8955932" cy="1059" r="20.1410169"></circle>
                <circle id="Oval" cx="151.092881" cy="928.802712" r="30.9308475"></circle>
                <circle id="Oval" cx="280.570847" cy="799.324746" r="41.720678"></circle>
                <circle id="Oval" cx="410.768136" cy="669.127458" r="53.2298305"></circle>
                <circle id="Oval" cx="540.246102" cy="539.649492" r="64.019661"></circle>
                <circle id="Oval" cx="1058.87729" cy="280.693559" r="39.5627119"></circle>
                <circle id="Oval" cx="929.399322" cy="410.171525" r="47.4752542"></circle>
                <circle id="Oval" cx="799.921356" cy="539.649492" r="56.1071186"></circle>
                <circle id="Oval" cx="540.246102" cy="799.324746" r="56.1071186"></circle>
                <circle id="Oval" cx="410.048814" cy="929.522034" r="47.4752542"></circle>
                <circle id="Oval" cx="279.851525" cy="1059.71932" r="39.5627119"></circle>
                <circle id="Oval" cx="149.654237" cy="1189.91661" r="30.9308475"></circle>
                <circle id="Oval" cx="1318.55254" cy="280.693559" r="41.720678"></circle>
                <circle id="Oval" cx="1188.35525" cy="410.171525" r="47.4752542"></circle>
                <circle id="Oval" cx="1058.87729" cy="539.649492" r="53.2298305"></circle>
                <circle id="Oval" cx="929.399322" cy="669.84678" r="58.9844068"></circle>
                <circle id="Oval" cx="539.52678" cy="1059" r="53.2298305"></circle>
                <circle id="Oval" cx="410.048814" cy="1189.19729" r="47.4752542"></circle>
                <circle id="Oval" cx="279.851525" cy="1319.39458" r="41.720678"></circle>
                <circle id="Oval" cx="1448.03051" cy="410.890847" r="53.2298305"></circle>
                <circle id="Oval" cx="1318.55254" cy="540.368814" r="56.1071186"></circle>
                <circle id="Oval" cx="1189.07458" cy="669.84678" r="58.9844068"></circle>
                <circle id="Oval" cx="1059.59661" cy="799.324746" r="61.1423729"></circle>
                <circle id="Oval" cx="799.921356" cy="1059" r="61.1423729"></circle>
                <circle id="Oval" cx="539.52678" cy="1319.39458" r="56.1071186"></circle>
                <circle id="Oval" cx="409.329492" cy="1449.59186" r="53.2298305"></circle>
                <circle id="Oval" cx="1577.50847" cy="540.368814" r="64.019661"></circle>
                <circle id="Oval" cx="929.399322" cy="1188.47797" r="64.019661"></circle>
                <circle id="Oval" cx="799.202034" cy="1318.67525" r="64.019661"></circle>
                <circle id="Oval" cx="539.52678" cy="1579.06983" r="64.019661"></circle>
                <circle id="Oval" cx="1707.70576" cy="669.84678" r="53.2298305"></circle>
                <circle id="Oval" cx="1578.2278" cy="799.324746" r="56.1071186"></circle>
                <circle id="Oval" cx="1318.55254" cy="1059" r="61.1423729"></circle>
                <circle id="Oval" cx="1189.07458" cy="1188.47797" r="64.019661"></circle>
                <circle id="Oval" cx="1058.87729" cy="1318.67525" r="61.1423729"></circle>
                <circle id="Oval" cx="929.399322" cy="1448.15322" r="58.9844068"></circle>
                <circle id="Oval" cx="799.202034" cy="1578.35051" r="56.1071186"></circle>
                <circle id="Oval" cx="669.004746" cy="1708.5478" r="53.2298305"></circle>
                <circle id="Oval" cx="1837.18373" cy="799.324746" r="41.720678"></circle>
                <circle id="Oval" cx="1707.70576" cy="929.522034" r="47.4752542"></circle>
                <circle id="Oval" cx="1578.2278" cy="1059" r="53.2298305"></circle>
                <circle id="Oval" cx="1319.27186" cy="1317.95593" r="64.019661"></circle>
                <circle id="Oval" cx="1189.07458" cy="1448.15322" r="58.9844068"></circle>
                <circle id="Oval" cx="1058.87729" cy="1578.35051" r="53.2298305"></circle>
                <circle id="Oval" cx="928.68" cy="1707.82847" r="47.4752542"></circle>
                <circle id="Oval" cx="1966.66169" cy="929.522034" r="30.9308475"></circle>
                <circle id="Oval" cx="1837.18373" cy="1059" r="39.5627119"></circle>
                <circle id="Oval" cx="1707.70576" cy="1188.47797" r="47.4752542"></circle>
                <circle id="Oval" cx="1578.2278" cy="1317.95593" r="56.1071186"></circle>
                <circle id="Oval" cx="1318.55254" cy="1577.63119" r="56.1071186"></circle>
                <circle id="Oval" cx="1188.35525" cy="1707.82847" r="47.4752542"></circle>
                <circle id="Oval" cx="1578.2278" cy="1577.63119" r="64.019661"></circle>
                <circle id="Oval" cx="670.44339" cy="410.171525" r="53.2298305"></circle>
                <circle id="Oval" cx="799.921356" cy="280.693559" r="41.720678"></circle>
                <circle id="Oval" cx="1448.74983" cy="1707.10915" r="53.2298305"></circle>
                <circle id="Oval" cx="1708.42508" cy="1448.15322" r="53.2298305"></circle>
                <circle id="Oval" cx="1837.90305" cy="1318.67525" r="41.720678"></circle>
                <circle id="Oval" cx="1967.38102" cy="1189.19729" r="30.9308475"></circle>
            </g>
            <g id="Group" opacity="0.559159873" style="mix-blend-mode: darken;" transform="translate(604.000000, 604.000000)" fill="#888888">
                <circle id="Oval" cx="65.5291339" cy="64.9307087" r="64.0519685"></circle>
                <circle id="Oval" cx="195.792126" cy="195.193701" r="64.0519685"></circle>
                <circle id="Oval" cx="65.5291339" cy="325.456693" r="59.0141732"></circle>
                <circle id="Oval" cx="325.335433" cy="324.737008" r="64.0519685"></circle>
                <circle id="Oval" cx="64.8094488" cy="585.262992" r="59.0141732"></circle>
                <circle id="Oval" cx="844.228346" cy="65.6503937" r="64.0519685"></circle>
                <circle id="Oval" cx="714.685039" cy="195.193701" r="64.0519685"></circle>
                <circle id="Oval" cx="585.141732" cy="324.737008" r="64.0519685"></circle>
                <circle id="Oval" cx="454.87874" cy="454.280315" r="64.0519685"></circle>
                <circle id="Oval" cx="64.8094488" cy="845.069291" r="64.0519685"></circle>
                <circle id="Oval" cx="844.228346" cy="325.456693" r="59.0141732"></circle>
                <circle id="Oval" cx="844.228346" cy="584.543307" r="59.0141732"></circle>
                <circle id="Oval" cx="844.948031" cy="844.349606" r="64.0519685"></circle>
            </g>
        </g>
        <g id="Group-3" transform="translate(549.000000, 570.000000)">
            <text id="30天AI训练营" font-family="PingFangSC-Semibold, PingFang SC" font-size="207.36" font-weight="500" letter-spacing="3.17387667" fill="#FFFFFF">
                <tspan x="0.124013332" y="220">30天AI训练营</tspan>
            </text>
            <g id="Group-2" transform="translate(0.000000, 291.000000)">
                <rect id="Rectangle" fill="#FE4A27" x="0" y="0" width="336.731707" height="30"></rect>
                <rect id="Rectangle" fill="#46A1FA" x="336.731707" y="0" width="336.731707" height="30"></rect>
                <rect id="Rectangle" fill="#FFD41B" x="673.463415" y="0" width="336.731707" height="30"></rect>
                <rect id="Rectangle" fill="#07C056" x="961.268293" y="0" width="336.731707" height="30"></rect>
            </g>
            <text id="Intellectual-Product" font-family="PingFangSC-Semibold, PingFang SC" font-size="88" font-weight="500" letter-spacing="1.34693849" fill="#FFFFFF">
                <tspan x="17.5039226" y="422">Intellectual Product Architect</tspan>
            </text>
        </g>
        <g id="logo" transform="translate(1025.000000, 225.000000)" fill-rule="nonzero">
            <g id="Group" fill="#FFFFFF">
                <ellipse id="Oval" cx="173.020593" cy="3.74237288" rx="3.2755758" ry="3.27457627"></ellipse>
                <ellipse id="Oval" cx="341.712747" cy="172.5" rx="3.2755758" ry="3.27457627"></ellipse>
                <ellipse id="Oval" cx="4.2114546" cy="172.5" rx="3.2755758" ry="3.27457627"></ellipse>
                <ellipse id="Oval" cx="25.3857124" cy="151.332203" rx="5.03034855" ry="5.02881356"></ellipse>
                <ellipse id="Oval" cx="46.4429854" cy="130.281356" rx="6.7851213" ry="6.78305085"></ellipse>
                <ellipse id="Oval" cx="67.6172433" cy="109.113559" rx="8.6568789" ry="8.65423729"></ellipse>
                <ellipse id="Oval" cx="88.6745163" cy="88.0627119" rx="10.4116516" ry="10.4084746"></ellipse>
                <ellipse id="Oval" cx="194.077866" cy="24.9101695" rx="5.03034855" ry="5.02881356"></ellipse>
                <ellipse id="Oval" cx="173.020593" cy="45.9610169" rx="6.43416675" ry="6.43220339"></ellipse>
                <ellipse id="Oval" cx="151.96332" cy="67.0118644" rx="7.7210001" ry="7.71864407"></ellipse>
                <ellipse id="Oval" cx="130.906047" cy="88.0627119" rx="9.1248183" ry="9.1220339"></ellipse>
                <ellipse id="Oval" cx="88.6745163" cy="130.281356" rx="9.1248183" ry="9.1220339"></ellipse>
                <ellipse id="Oval" cx="67.5002584" cy="151.449153" rx="7.7210001" ry="7.71864407"></ellipse>
                <ellipse id="Oval" cx="46.3260006" cy="172.616949" rx="6.43416675" ry="6.43220339"></ellipse>
                <ellipse id="Oval" cx="25.1517427" cy="193.784746" rx="5.03034855" ry="5.02881356"></ellipse>
                <ellipse id="Oval" cx="215.252124" cy="45.9610169" rx="6.7851213" ry="6.78305085"></ellipse>
                <ellipse id="Oval" cx="194.077866" cy="67.0118644" rx="7.7210001" ry="7.71864407"></ellipse>
                <ellipse id="Oval" cx="173.020593" cy="88.0627119" rx="8.6568789" ry="8.65423729"></ellipse>
                <ellipse id="Oval" cx="151.96332" cy="109.230508" rx="9.5927577" ry="9.58983051"></ellipse>
                <ellipse id="Oval" cx="88.5575314" cy="172.5" rx="8.6568789" ry="8.65423729"></ellipse>
                <ellipse id="Oval" cx="67.5002584" cy="193.667797" rx="7.7210001" ry="7.71864407"></ellipse>
                <ellipse id="Oval" cx="46.3260006" cy="214.835593" rx="6.7851213" ry="6.78305085"></ellipse>
                <ellipse id="Oval" cx="236.309397" cy="67.1288136" rx="8.6568789" ry="8.65423729"></ellipse>
                <ellipse id="Oval" cx="215.252124" cy="88.179661" rx="9.1248183" ry="9.1220339"></ellipse>
                <ellipse id="Oval" cx="194.194851" cy="109.230508" rx="9.5927577" ry="9.58983051"></ellipse>
                <ellipse id="Oval" cx="173.137578" cy="130.281356" rx="9.94371225" ry="9.94067797"></ellipse>
                <ellipse id="Oval" cx="130.906047" cy="172.5" rx="9.94371225" ry="9.94067797"></ellipse>
                <ellipse id="Oval" cx="88.5575314" cy="214.835593" rx="9.1248183" ry="9.1220339"></ellipse>
                <ellipse id="Oval" cx="67.3832736" cy="236.00339" rx="8.6568789" ry="8.65423729"></ellipse>
                <ellipse id="Oval" cx="257.36667" cy="88.179661" rx="10.4116516" ry="10.4084746"></ellipse>
                <ellipse id="Oval" cx="151.96332" cy="193.550847" rx="10.4116516" ry="10.4084746"></ellipse>
                <ellipse id="Oval" cx="130.789062" cy="214.718644" rx="10.4116516" ry="10.4084746"></ellipse>
                <ellipse id="Oval" cx="88.5575314" cy="257.054237" rx="10.4116516" ry="10.4084746"></ellipse>
                <ellipse id="Oval" cx="278.540928" cy="109.230508" rx="8.6568789" ry="8.65423729"></ellipse>
                <ellipse id="Oval" cx="257.483655" cy="130.281356" rx="9.1248183" ry="9.1220339"></ellipse>
                <ellipse id="Oval" cx="215.252124" cy="172.5" rx="9.94371225" ry="9.94067797"></ellipse>
                <ellipse id="Oval" cx="194.194851" cy="193.550847" rx="10.4116516" ry="10.4084746"></ellipse>
                <ellipse id="Oval" cx="173.020593" cy="214.718644" rx="9.94371225" ry="9.94067797"></ellipse>
                <ellipse id="Oval" cx="151.96332" cy="235.769492" rx="9.5927577" ry="9.58983051"></ellipse>
                <ellipse id="Oval" cx="130.789062" cy="256.937288" rx="9.1248183" ry="9.1220339"></ellipse>
                <ellipse id="Oval" cx="109.614804" cy="278.105085" rx="8.6568789" ry="8.65423729"></ellipse>
                <ellipse id="Oval" cx="299.598201" cy="130.281356" rx="6.7851213" ry="6.78305085"></ellipse>
                <ellipse id="Oval" cx="278.540928" cy="151.449153" rx="7.7210001" ry="7.71864407"></ellipse>
                <ellipse id="Oval" cx="257.483655" cy="172.5" rx="8.6568789" ry="8.65423729"></ellipse>
                <ellipse id="Oval" cx="215.369109" cy="214.601695" rx="10.4116516" ry="10.4084746"></ellipse>
                <ellipse id="Oval" cx="194.194851" cy="235.769492" rx="9.5927577" ry="9.58983051"></ellipse>
                <ellipse id="Oval" cx="173.020593" cy="256.937288" rx="8.6568789" ry="8.65423729"></ellipse>
                <ellipse id="Oval" cx="151.846335" cy="277.988136" rx="7.7210001" ry="7.71864407"></ellipse>
                <ellipse id="Oval" cx="130.672077" cy="299.155932" rx="6.7851213" ry="6.78305085"></ellipse>
                <ellipse id="Oval" cx="320.655474" cy="151.449153" rx="5.03034855" ry="5.02881356"></ellipse>
                <ellipse id="Oval" cx="299.598201" cy="172.5" rx="6.43416675" ry="6.43220339"></ellipse>
                <ellipse id="Oval" cx="278.540928" cy="193.550847" rx="7.7210001" ry="7.71864407"></ellipse>
                <ellipse id="Oval" cx="257.483655" cy="214.601695" rx="9.1248183" ry="9.1220339"></ellipse>
                <ellipse id="Oval" cx="215.252124" cy="256.820339" rx="9.1248183" ry="9.1220339"></ellipse>
                <ellipse id="Oval" cx="194.077866" cy="277.988136" rx="7.7210001" ry="7.71864407"></ellipse>
                <ellipse id="Oval" cx="172.903608" cy="299.155932" rx="6.43416675" ry="6.43220339"></ellipse>
                <ellipse id="Oval" cx="151.72935" cy="320.20678" rx="5.03034855" ry="5.02881356"></ellipse>
                <ellipse id="Oval" cx="257.483655" cy="256.820339" rx="10.4116516" ry="10.4084746"></ellipse>
                <ellipse id="Oval" cx="109.848774" cy="67.0118644" rx="8.6568789" ry="8.65423729"></ellipse>
                <ellipse id="Oval" cx="130.906047" cy="45.9610169" rx="6.7851213" ry="6.78305085"></ellipse>
                <ellipse id="Oval" cx="151.96332" cy="24.9101695" rx="5.03034855" ry="5.02881356"></ellipse>
                <ellipse id="Oval" cx="173.137578" cy="341.257627" rx="3.2755758" ry="3.27457627"></ellipse>
                <ellipse id="Oval" cx="194.194851" cy="320.089831" rx="5.03034855" ry="5.02881356"></ellipse>
                <ellipse id="Oval" cx="215.252124" cy="299.038983" rx="6.7851213" ry="6.78305085"></ellipse>
                <ellipse id="Oval" cx="236.426382" cy="277.871186" rx="8.6568789" ry="8.65423729"></ellipse>
                <ellipse id="Oval" cx="278.657913" cy="235.769492" rx="8.6568789" ry="8.65423729"></ellipse>
                <ellipse id="Oval" cx="299.715186" cy="214.718644" rx="6.7851213" ry="6.78305085"></ellipse>
                <ellipse id="Oval" cx="320.772459" cy="193.667797" rx="5.03034855" ry="5.02881356"></ellipse>
            </g>
            <g id="Group" opacity="0.559159873" style="mix-blend-mode: darken;" transform="translate(98.267274, 98.237288)" fill="#888888">
                <ellipse id="Oval" cx="11.4645153" cy="10.8762712" rx="10.4116516" ry="10.4084746"></ellipse>
                <ellipse id="Oval" cx="32.6387731" cy="32.0440678" rx="10.4116516" ry="10.4084746"></ellipse>
                <ellipse id="Oval" cx="11.4645153" cy="53.2118644" rx="9.5927577" ry="9.58983051"></ellipse>
                <ellipse id="Oval" cx="53.6960461" cy="53.0949153" rx="10.4116516" ry="10.4084746"></ellipse>
                <ellipse id="Oval" cx="11.3475304" cy="95.4305085" rx="9.5927577" ry="9.58983051"></ellipse>
                <ellipse id="Oval" cx="138.042123" cy="10.9932203" rx="10.4116516" ry="10.4084746"></ellipse>
                <ellipse id="Oval" cx="116.98485" cy="32.0440678" rx="10.4116516" ry="10.4084746"></ellipse>
                <ellipse id="Oval" cx="95.927577" cy="53.0949153" rx="10.4116516" ry="10.4084746"></ellipse>
                <ellipse id="Oval" cx="74.7533191" cy="74.1457627" rx="10.4116516" ry="10.4084746"></ellipse>
                <ellipse id="Oval" cx="11.3475304" cy="137.649153" rx="10.4116516" ry="10.4084746"></ellipse>
                <ellipse id="Oval" cx="138.042123" cy="53.2118644" rx="9.5927577" ry="9.58983051"></ellipse>
                <ellipse id="Oval" cx="138.042123" cy="95.3135593" rx="9.5927577" ry="9.58983051"></ellipse>
                <ellipse id="Oval" cx="138.159108" cy="137.532203" rx="10.4116516" ry="10.4084746"></ellipse>
            </g>
        </g>
    </g>
</svg>